<svg id="Layer_1" data-name="Layer 1" xmlns="http://www.w3.org/2000/svg" viewBox="0 0 1259.54 1414.49"><defs><style>.cls-1,.cls-6{fill:#fff;}.cls-1,.cls-11,.cls-2{stroke:#000;stroke-width:7px;}.cls-1,.cls-11,.cls-2,.cls-7{stroke-miterlimit:10;}.cls-3{fill:#232458;}.cls-4{fill:#e8242a;}.cls-5{fill:#fbbd9d;}.cls-7{fill:#9e9181;stroke:#fbbd9d;stroke-width:0.25px;}.cls-10,.cls-8,.cls-9{fill:#fed8aa;}.cls-9{opacity:0.53;}.cls-10{opacity:0.42;}.cls-11{fill:none;}</style></defs><path class="cls-1" d="M1000.83,1703.16l.08,0Z" transform="translate(-418.96 -292.52)"/><path class="cls-1" d="M1366.12,1190.32c8.44-7.63,16.3-16.43,16.3-16.43l34.72-34,15.3-1.49s10.83,5.23,20.91,6.72c4.11,9.33-8.59,28.74-8.59,28.74l7.47-9.7,17.92-29.12,26.13-14.19,12.32,4.11s17.92,11.57,21.28,9.71c.89-.5,3.7-.52,7.32-.28-127.74,374.53-504.79,554.23-535.37,568.29l-1,.45-.36-.17.27.13-.32-.15-.58-.26C963,1685.76,422.46,1428,422.46,878.38c0-154.06,46.07-386,266-519.88,20.73,19.59,91.44,106.91,132.93,266.25a253.16,253.16,0,0,0,13,37.71c11.27,25.81,25.46,55.16,52.42,84.07-21.73-15.42-75-61.34-90.09-84.13-12.26,6-25.58,12.27-25.58,12.27S877.19,763.06,899,839.81c-17.42-7.62-44.63-7.07-69.67-2.72,24.49,6,171.46,58.25,171.46,226.45l.08-7,.09,7c0-123.34,79-184.33,130.84-210.46l15.94,23s-1,15.54-1,16.53,9.93,29.34,9.93,29.34L1164,930l22.54,3.3,12.41,23.29,4.55,10.13-8.86,29.12s-19.5,16-20.51,17-19.5,3.29-19.5,3.29.51,15.95-.86,27.26c-122.73,68.73-91.79,309.47-89.31,284s21-49.37,21-49.37l38.84,3.13,22.82-16.54s29.09-23.4,32.52-22.82,41.65-6.28,50.77-17.69,20.54,22.25,20.54,22.25,30-23.82,38.5-27.81c7-3.28,38.88-14.42,54.16-17.16A45.73,45.73,0,0,0,1366.12,1190.32Z" transform="translate(-418.96 -292.52)"/><path class="cls-1" d="M1000.47,1703l-.05,0Z" transform="translate(-418.96 -292.52)"/><path class="cls-1" d="M1000.91,1703.2l.15.07Z" transform="translate(-418.96 -292.52)"/><path class="cls-1" d="M1001.1,1703.28Z" transform="translate(-418.96 -292.52)"/><path class="cls-1" d="M1001.06,1703.27h0Z" transform="translate(-418.96 -292.52)"/><path class="cls-2" d="M475,864.88s5.49,108.31,60,197c10.2,18.44,43.16,101.63,176.19,144.79,14.51,4.71,33.61,6.14,43.68,6.22s158.48-12,182,112c6.28,41.59,19.62-229.94-95.74-284.88C820.77,1029.77,544.37,948.78,475,864.88Z" transform="translate(-418.96 -292.52)"/><path class="cls-3" d="M467.51,829.17s29-253.57,213.89-409.3c25.32,30.39,70,100.27,87.88,204.65C752.73,629.57,594.19,694.35,467.51,829.17Z" transform="translate(-418.96 -292.52)"/><path d="M997.23,1063.53h7.2s-3.51,29.06-3.6,29S997.23,1063.53,997.23,1063.53Z" transform="translate(-418.96 -292.52)"/><path class="cls-3" d="M1001.83,1487.27c-49.68,56.4-147.3,35.73-147.3,35.73,73.36,43.82,147.3-7.57,147.3-7.57s73.95,51.39,147.31,7.57C1149.14,1523,1051.51,1543.67,1001.83,1487.27Z" transform="translate(-418.96 -292.52)"/><path class="cls-4" d="M611.82,1126.57c-2.47-28.68,5.43-78.43,67.27-106.65a101.65,101.65,0,0,1,78.07-2.21c2.55,1,5.14,1.92,7.73,2.84A97.36,97.36,0,0,1,823,1076.93c12.41,32.08,16.14,75.48-26.75,112.16-14.65,7.52-37.2,20.18-73.21,12.66-12.21-2.32-47.25-11-90.32-39.9A47.36,47.36,0,0,1,611.82,1126.57Z" transform="translate(-418.96 -292.52)"/><path class="cls-5" d="M719.67,1076.61c-13.69,0-24.79,11.57-24.79,25.83s11.1,25.83,24.79,25.83,24.78-11.56,24.78-25.83S733.36,1076.61,719.67,1076.61Zm-.09,46.13c-10.88,0-19.71-9.19-19.71-20.54s8.83-20.54,19.71-20.54,19.71,9.2,19.71,20.54S730.46,1122.74,719.58,1122.74Z" transform="translate(-418.96 -292.52)"/><circle class="cls-6" cx="340.39" cy="783.4" r="29.73"/><path class="cls-7" d="M742.77,1167.27c1.28,11.43.93,25.62-5.73,31.41-4.4,3.82-9.83,3-18.38,1.77-1.5-.22-2.95-.06-15.65-4.11-12.21-3.89-14.61-5.28-17.66-6.87-6.07-3.18-12.49-5.87-13.11-11.75-.24-2.3.86-4.88,1.9-8.65,2.35-8.52,8.87-22.7,30.69-25C721.06,1142.39,741.29,1154,742.77,1167.27Z" transform="translate(-418.96 -292.52)"/><path class="cls-8" d="M652.85,1114.11l-9.31.49-.48-9.31a3,3,0,1,0-6,.31l.49,9.31-9.31.49a3,3,0,1,0,.31,6l9.31-.49.49,9.31a3,3,0,1,0,6-.31l-.48-9.31,9.31-.49a3,3,0,0,0-.32-6Z" transform="translate(-418.96 -292.52)"/><rect class="cls-9" x="796.97" y="1125.91" width="8.09" height="24.83" rx="4.05" transform="translate(-982.57 1119.98) rotate(-66.23)"/><rect class="cls-10" x="791.87" y="1151.68" width="6.9" height="13.73" rx="3.45" transform="translate(-1004.48 1126.84) rotate(-66.23)"/><path class="cls-3" d="M531.33,1112.64s57.91,70,112,93.33,57.48,24.6,76.08,26.29,175.21-5.35,179.84,113.7c-13.85-26.22-28.09-83-144-77.6a14.19,14.19,0,0,0-13.39,12.3c-3.11,23.29-3.56,73.29,6.19,121.58,4.21,11.8,44.65,135.22-38.33,67.82-12.64-10.11-149.85-156.3-193.11-266.85,21.28,26.78,142.64,178.38,180.59,198.67,12.4,5.26,22.16,13.9,22.16-7.51s-3.57-123.88-19.91-130.75C682.13,1256.34,580.37,1237.05,531.33,1112.64Z" transform="translate(-418.96 -292.52)"/><path class="cls-3" d="M1104.05,1317.32s103.55-29.26,105.66,79.39c-1.7,19.75-19,97.28-7.39,121a9.55,9.55,0,0,0,1.2,1.82c5.44,6.82,8.06,13.41,37.1,6.48-7.52-2.26-51.06-23.47,18.76-106.92a115.54,115.54,0,0,1,31.16-26.39c20.2-11.53,44.79-17.25,38.71,23.92,16-14.94,92-81,130.44-170-18.82,24-121,136.2-177,101.89-6.91-3.63-20.82-68.91,116-144.59-14.5,4.94-184.61,57.7-162.14,164.11C1225.2,1347.88,1210.58,1254.45,1104.05,1317.32Z" transform="translate(-418.96 -292.52)"/><path class="cls-11" d="M1107.81,962.42c0-1.72,9.29-12.38,10-16.51,6.19-1.37,13.07-2.41,13.07-2.41s2.41-9.63,6.19-11.35,14.45-4.81,14.45-4.81l5.5-6.54" transform="translate(-418.96 -292.52)"/><path class="cls-1" d="M1249.61,585.24l-36.07-16-8.8,10.74-15.46-1.08s-8.59-21.25-15.24-27.26c2.79-11.38,12.66-35.21,15-38-2.57-8.15-8.58-33.49-8.58-34.13s7.73-18,7.73-18,26.62-10.3,27.26-10.52,13.31-26.4,13.31-26.4l11-7.73,13.31-1.94L1286.32,388s44.87,51.31,49.38,53.67c2.15,3,42.51,80.3,42.51,80.3s-25.33,33.92-27.69,50c-3,2.36-40.8,34.14-40.8,34.14Z" transform="translate(-418.96 -292.52)"/><path class="cls-1" d="M1474.67,1026.81c-1.53.19-3,33.72,10.53,33.46,4.64,4.44,2.81,19.61,2.29,30.47s-.26,17.4-.26,17.4,22,3.66,28,6.27c6.54,1.84,14.38-1,30.34-12,15.44-5.49,28.51-11.64,28.51-11.64l13.87-77.82s-32.18-4.45-44.73-1.31c-11-3.4-38.72-11.25-40.81-14.13C1500.83,1001.67,1481,1026.06,1474.67,1026.81Z" transform="translate(-418.96 -292.52)"/><path class="cls-1" d="M1273.83,944.94l27,19.76-2.41,25.69,49.13,18.64,53.35,4,28.8,13.83,20.89-11.86,27.67-7.05s16.53-28.23,18.85-33.6,11.92-11.9,14.74-14.7,17.22-31,17.22-31l-42.63-83L1417,867l-37.54,2.83s-30.78,19.19-29.93,24c14,6.67,30.44,28.9,28.47,33.14-3.67-4.8-40.33-34.27-56.13-25.52a110.75,110.75,0,0,1-16.94,1.7S1286,940.14,1273.83,944.94Z" transform="translate(-418.96 -292.52)"/><path class="cls-1" d="M1188,916.9l21.16,22.23s16.73,2.48,21.48-.83a32.65,32.65,0,0,1,6.3-3.62,130.87,130.87,0,0,0,19.28-10.22l10.92-21.09,14.39-20.69s-4.66-26.11-5-27.16-8.18-13.51-8.18-13.51l8.89-40.66L1255,774.81l-38.66-5-23.32-21.19s-18.78,1.73-22.27.8-6.7-1.88-6.7-1.88l-12.68,16.38-3.4,8.88-9,8.28-2.33,9.11-18.59,21.9,5.49,19.71L1111,877.71l42.67,37.84Z" transform="translate(-418.96 -292.52)"/><path class="cls-1" d="M1390.53,1118c-7.3-1,15.82-17.48,15.82-17.48l22.47-17.48,10.82-2.92,24.14-27.47,22.06,5.41,11.24,3.33s-19.56,23.73-20.81,23.94-25,24.34-25,24.34-12.07,7.08-13.32,8.33-14.57,10.82-14.57,10.82S1421.75,1122.16,1390.53,1118Z" transform="translate(-418.96 -292.52)"/><path class="cls-1" d="M1207.85,994.56S1256.32,965,1257,962.42c11.79,3.5,40.09,11.59,40.09,11.59s11.45,15.49,18.53,14.48c7.75-1,25.94,6.07,25.94,6.07h18.19s43.6,39.26,52.75,43.22a1.14,1.14,0,0,1,.48,1.68c-5,7.31-9.29,17.07-12.13,21.8-4,1.69-16.5,10.11-22.23,20.22-8.09,1.34-36.39,10.78-37.4,14.48-8.08-9.77-39-34.22-39-34.22l-50.73-9.09s-14-20.74-17-31.12C1228.9,1016.63,1207.85,994.56,1207.85,994.56Z" transform="translate(-418.96 -292.52)"/><polyline class="cls-11" points="881.84 768.95 888.18 762.28 891.76 760.13 900.95 751.56"/><path class="cls-1" d="M1587.94,925c1.24,0,16.46,16.11,16.91,25.51,7.16-4,23.27-14.75,40.73-14.31a470.79,470.79,0,0,0,8.06-49.25l-40.74-3.14Z" transform="translate(-418.96 -292.52)"/><path class="cls-1" d="M1532.33,815.32l4.87,21.93,12.14,2.24,18.35-20.14L1550,792S1548.89,814.42,1532.33,815.32Z" transform="translate(-418.96 -292.52)"/><path class="cls-1" d="M1575.3,703.41s17.91,18.35,21,43c13.43-6.71,63.56-43,63.56-43s8.06-30,11.64-37.6c-13.43,5.37-25.06,6.27-27.3,5.37C1638.42,673.87,1575.3,703.41,1575.3,703.41Z" transform="translate(-418.96 -292.52)"/><path class="cls-1" d="M1347.91,796.52l34.91,4,48.35,8.05,22.38-21,34-22.82-2.69-38,19.7-41.63-57.3-99.82s-42.52,29.54-47.45,33.57c-4.92,9-17.45,48.34-22.38,51.92-7.16,9-38.49,40.29-38.49,40.29s5.37,34.91,9.84,39.84C1348.8,759.36,1347.91,796.52,1347.91,796.52Z" transform="translate(-418.96 -292.52)"/><path class="cls-1" d="M1149.47,683.51c2,1.32,20.38,25.65,20.38,25.65l7.9,23,33.21,7.89,17.42,16.77,45,4.28,13.48-28.61V695l31.9-36.82s-2.3-32.56-2.63-34.2,2.63-23,2.63-23-12.49-14.72-12.49-15.74-3-18.79-3-18.79L1290.2,548l-17.48-3.64-17.9,6L1223,589.73l-15.55,6-11.55-.34s-18.23,33.63-18.23,48.35C1176,647.62,1149.47,683.51,1149.47,683.51Z" transform="translate(-418.96 -292.52)"/><path class="cls-11" d="M1219.71,590.66c0,.36,9.68,9.32,9.68,9.32l20.92,9.69" transform="translate(-418.96 -292.52)"/><path class="cls-11" d="M1287,549.67c.3-.45,17.7-29.74,17.7-29.74" transform="translate(-418.96 -292.52)"/><path class="cls-1" d="M1200.6,490.94c-.4-2-6.93-31.61-6.93-31.61v-16.2l-10.85-15.41V411.91l60.06,15L1231,484.62Z" transform="translate(-418.96 -292.52)"/><path class="cls-1" d="M1214.4,334.24l21.94,36.48,6.54,15.86s15.38-14.66,22-16.29a6,6,0,0,0,4.68-5.56v-.45a5.84,5.84,0,0,1,1.72-4.2l13.94-13.94V312.3l-47.84-15.59Z" transform="translate(-418.96 -292.52)"/><path class="cls-1" d="M1382.84,407.83c.2-.8,17.31-31.43,17.31-31.43l40.78,37-5.77,58.88-38.59-26.06Z" transform="translate(-418.96 -292.52)"/><polygon class="cls-1" points="1112.3 250.06 1131.04 274.3 1142.51 264.6 1167.56 261.05 1179.03 224.69 1152.21 194.8 1125.71 200.94 1112.3 250.06"/></svg>